<svg xmlns="http://www.w3.org/2000/svg" width="201.61" height="44.217" viewBox="0 0 201.61 44.217">
  <g id="Group_2" data-name="Group 2" transform="translate(-70.267 -51.776)">
    <g id="Group_1" data-name="Group 1" transform="translate(10 -121)">
      <text id="Bucket.css" transform="translate(106.147 209.18)" fill="#1f7ae0" font-size="33" font-family="Lato-Bold, Lato" font-weight="700"><tspan x="0" y="0">Bucket.css</tspan></text>
      <g id="BiBucketFill" transform="translate(60 172.717)">
        <path id="Path_2" data-name="Path 2" d="M4.329,13.862H2.884a1.385,1.385,0,0,0-1.368,1.59l3.8,25.337a4.154,4.154,0,0,0,4.1,3.537H29.576a4.154,4.154,0,0,0,4.107-3.536l3.8-25.338a1.385,1.385,0,0,0-1.368-1.59H34.671a15.232,15.232,0,0,0-30.342,0Zm2.783,0a12.462,12.462,0,0,1,24.772,0Z" transform="translate(-1.5 0.009)" fill="#1f7ae0"/>
      </g>
    </g>
  </g>
</svg>
