<svg id="wb_sunny_black_24dp" xmlns="http://www.w3.org/2000/svg" width="24" height="24" viewBox="0 0 24 24">
  <path id="Path_2" data-name="Path 2" d="M0,0H24V24H0Z" fill="none"/>
  <path id="Path_3" data-name="Path 3" d="M6.76,4.84,4.96,3.05,3.55,4.46,5.34,6.25ZM4,10.5H1v2H4ZM13,.55H11V3.5h2V.55Zm7.45,3.91L19.04,3.05,17.25,4.84l1.41,1.41Zm-3.21,13.7,1.79,1.8,1.41-1.41-1.8-1.79-1.4,1.4ZM20,10.5v2h3v-2Zm-8-5a6,6,0,1,0,6,6A6,6,0,0,0,12,5.5ZM11,22.45h2V19.5H11ZM3.55,18.54l1.41,1.41,1.79-1.8L5.34,16.74Z" fill="#f7fafc"/>
</svg>
