<svg xmlns="http://www.w3.org/2000/svg" width="60" height="60" viewBox="0 0 60 60">
  <g id="Group_9" data-name="Group 9" transform="translate(-90 -94)">
    <circle id="Ellipse_1" data-name="Ellipse 1" cx="30" cy="30" r="30" transform="translate(90 94)" fill="#fff"/>
    <path id="Path_30" data-name="Path 30" d="M50.634,105.3a1.364,1.364,0,1,0-1.759,2.084l11.4,9.632v5.626a16.556,16.556,0,0,1-11.449-5.469c-6.6-7.687-3.536-18.729.2-26.637a71.615,71.615,0,0,1,8.1-12.43,1.365,1.365,0,1,0-2.148-1.684,74.078,74.078,0,0,0-8.418,12.947c-5.846,12.389-5.777,22.619.2,29.58a19.518,19.518,0,0,0,14.729,6.479H61.5A1.554,1.554,0,0,0,63,123.96v-7.571a1.349,1.349,0,0,0-.482-1.039Z" transform="translate(58.776 26.773)" fill="#4d822b"/>
    <path id="Path_31" data-name="Path 31" d="M76.744,111.377l-9.812,7.936-9.9-8.157a1.365,1.365,0,0,0-1.736,2.107c.151.128,10.683,8.807,10.845,8.923a1.356,1.356,0,0,0,1.643-.046L78.463,113.5a1.366,1.366,0,0,0-1.719-2.125Z" transform="translate(53.503 12.116)" fill="#4d822b"/>
    <path id="Path_32" data-name="Path 32" d="M61.89,98.388a1.362,1.362,0,1,0-1.788,2.055l3.257,2.827a1.362,1.362,0,1,0,1.788-2.055Z" transform="translate(51.474 17.482)" fill="#4d822b"/>
    <path id="Path_33" data-name="Path 33" d="M81.978,134.713a1.364,1.364,0,0,0,1.922.192l7.815-6.375a1.366,1.366,0,1,0-1.73-2.113l-7.815,6.375A1.37,1.37,0,0,0,81.978,134.713Z" transform="translate(42.231 5.715)" fill="#4d822b"/>
    <path id="Path_34" data-name="Path 34" d="M89.78,84.548c-3.692-7.826-12.151-17.336-14.038-19.641a1.363,1.363,0,0,0-2.409,1c-.035.209-.023-1.3-.023,25.847a1.434,1.434,0,0,0,2.322,1.068l8.082-6.381A1.364,1.364,0,1,0,82.023,84.3L76.037,89.03V69.5c3.257,3.9,8.622,10.584,11.275,16.215,3.733,7.913,6.793,18.956.2,26.637a14.16,14.16,0,0,1-7.71,4.987,1.363,1.363,0,0,0,.65,2.647,16.9,16.9,0,0,0,9.121-5.858C95.556,107.167,95.626,96.938,89.78,84.548Z" transform="translate(45.739 31.595)" fill="#4d822b"/>
  </g>
</svg>
